<svg aria-hidden="true" style="position: absolute; width: 0; height: 0; overflow: hidden;" version="1.1"
     xmlns="http://www.w3.org/2000/svg">
    <defs>
        <symbol id="icon-arrow-circle-down" viewBox="0 0 32 32">
            <path fill="currentColor" d="M16 29.333c7.364 0 13.333-5.97 13.333-13.333s-5.97-13.333-13.333-13.333c-7.364 0-13.333 5.97-13.333 13.333s5.97 13.333 13.333 13.333z"></path>
            <path fill="#fff" d="M16 20.013c-0.253 0-0.507-0.093-0.707-0.293l-4.707-4.707c-0.387-0.387-0.387-1.027 0-1.413s1.027-0.387 1.413 0l4 4 4-4c0.387-0.387 1.027-0.387 1.413 0s0.387 1.027 0 1.413l-4.707 4.707c-0.2 0.2-0.453 0.293-0.707 0.293z"></path>
        </symbol>

        <symbol id="icon-arrow-circle-right" viewBox="0 0 24 24">
            <path fill="currentColor" d="m22 12c0 5.5-4.5 10-10 10-5.5 0-10-4.5-10-10 0-5.5 4.5-10 10-10 5.5 0 10 4.5 10 10z"/>
            <path fill="#fff" d="m15 12q0 0.3-0.2 0.5l-3.5 3.6c-0.3 0.2-0.8 0.2-1.1 0-0.3-0.3-0.3-0.8 0-1.1l3-3-3-3c-0.3-0.3-0.3-0.8 0-1.1 0.3-0.3 0.8-0.3 1.1 0l3.5 3.6q0.2 0.2 0.2 0.5z"/>
        </symbol>

        <symbol id="icon-call" viewBox="0 0 32 32">
            <path fill="currentColor"
                  d="M29.293 24.44c0 0.48-0.107 0.973-0.333 1.453s-0.52 0.933-0.907 1.36c-0.653 0.72-1.373 1.24-2.187 1.573-0.8 0.333-1.667 0.507-2.6 0.507-1.36 0-2.813-0.32-4.347-0.973s-3.067-1.533-4.587-2.64c-1.533-1.12-2.987-2.36-4.373-3.733-1.373-1.387-2.613-2.84-3.72-4.36-1.093-1.52-1.973-3.040-2.613-4.547-0.64-1.52-0.96-2.973-0.96-4.36 0-0.907 0.16-1.773 0.48-2.573 0.32-0.813 0.827-1.56 1.533-2.227 0.853-0.84 1.787-1.253 2.773-1.253 0.373 0 0.747 0.080 1.080 0.24 0.347 0.16 0.653 0.4 0.893 0.747l3.093 4.36c0.24 0.333 0.413 0.64 0.533 0.933 0.12 0.28 0.187 0.56 0.187 0.813 0 0.32-0.093 0.64-0.28 0.947-0.173 0.307-0.427 0.627-0.747 0.947l-1.013 1.053c-0.147 0.147-0.213 0.32-0.213 0.533 0 0.107 0.013 0.2 0.040 0.307 0.040 0.107 0.080 0.187 0.107 0.267 0.24 0.44 0.653 1.013 1.24 1.707 0.6 0.693 1.24 1.4 1.933 2.107 0.72 0.707 1.413 1.36 2.12 1.96 0.693 0.587 1.267 0.987 1.72 1.227 0.067 0.027 0.147 0.067 0.24 0.107 0.107 0.040 0.213 0.053 0.333 0.053 0.227 0 0.4-0.080 0.547-0.227l1.013-1c0.333-0.333 0.653-0.587 0.96-0.747 0.307-0.187 0.613-0.28 0.947-0.28 0.253 0 0.52 0.053 0.813 0.173s0.6 0.293 0.933 0.52l4.413 3.133c0.347 0.24 0.587 0.52 0.733 0.853 0.133 0.333 0.213 0.667 0.213 1.040z"></path>
        </symbol>

        <symbol id="icon-email" viewBox="0 0 32 32">
            <path fill="currentColor"
                  d="M22.667 27.333h-13.333c-4 0-6.667-2-6.667-6.667v-9.333c0-4.667 2.667-6.667 6.667-6.667h13.333c4 0 6.667 2 6.667 6.667v9.333c0 4.667-2.667 6.667-6.667 6.667z"></path>
            <path fill="none" stroke="#fcf9f1" style="stroke: var(--color4, #fcf9f1)" stroke-linejoin="round"
                  stroke-linecap="round" stroke-miterlimit="10" stroke-width="1.3333"
                  d="M22.667 12l-4.173 3.333c-1.373 1.093-3.627 1.093-5 0l-4.16-3.333"></path>
        </symbol>

        <symbol id="swiper-arrow-left" viewBox="0 0 54 54">
            <rect x="54" y="54" width="54" height="54" rx="27" transform="rotate(-180 54 54)" fill="#FFA737"/>
            <g opacity="0.45">
                <path d="M29.3174 21.0595L24.4274 25.9495C23.8499 26.527 23.8499 27.472 24.4274 28.0495L29.3174 32.9395" stroke="#FCF9F1" stroke-width="2" stroke-miterlimit="10" stroke-linecap="round" stroke-linejoin="round"/>
            </g>
        </symbol>

    </defs>
</svg>

