<svg width="72" height="72" viewBox="0 0 72 72" fill="none" xmlns="http://www.w3.org/2000/svg">
<g clip-path="url(#clip0_1304_416)">
<path d="M20.2871 29.7192C21.4875 28.933 22.5665 28.1664 23.585 27.3766C30.4092 22.0799 33.9265 17.6212 34.0389 14.1233C34.0978 12.3209 33.3789 10.6183 32.0626 9.4506C30.7713 8.32031 28.9787 7.79617 27.1451 8.01723C22.8448 8.54316 18.3269 17.5908 16.0153 22.9392C15.4927 24.1408 14.97 25.4227 14.4189 26.8596C14.3975 26.8739 14.3761 26.8863 14.3565 26.9006C10.8909 29.1452 7.26831 31.1419 3.54408 32.9265L0 34.6219C0.72594 15.3802 16.5539 0 35.9831 0C55.4122 0 72 16.1183 72 36C72 38.4139 71.7574 40.7708 71.3044 43.0527C68.9197 46.5292 64.5961 49.0804 60.0496 49.6384C57.137 49.9949 55.0751 49.4869 54.0798 48.1658C53.1452 46.9268 53.147 44.9514 54.0816 42.7461C55.3248 39.8205 57.8272 37.4227 59.9034 37.1677C60.3618 37.1107 60.9896 37.1463 61.3499 37.642C61.8351 38.3087 61.7209 39.5834 61.0396 41.0507L60.838 41.4857L65.8982 41.5819L65.9838 41.393C67.2912 38.512 67.2502 35.5614 65.8768 33.6931C65.0295 32.5432 63.2976 31.2595 59.8267 31.6874C53.188 32.5004 48.3615 38.4977 47.195 44.1135C46.9257 45.4096 46.4084 46.654 45.5683 47.6773C45.4649 47.8057 45.3578 47.9251 45.2544 48.0321C43.1319 50.2178 40.8417 51.5228 38.6014 51.792C37.7988 51.8883 37.1335 51.7047 36.7696 51.3C36.3933 50.8935 36.3184 50.1964 36.5342 49.3193L38.8458 40.0042L44.6569 39.2964C45.2562 37.0251 46.6724 34.8037 48.0493 33.3579L40.2709 34.3545L42.1616 26.4442L35.423 27.2786L33.4503 35.1924L28.1618 35.8324L26.3015 41.6408L32.1286 40.7529L31.2279 44.372C30.5216 47.2423 28.9573 49.7578 26.8348 51.4515C25.2063 52.7476 23.3103 53.5391 21.0612 53.8601C19.4969 54.0865 18.243 53.7424 17.3102 52.8225C14.6115 50.1358 15.5212 43.4414 15.5319 43.3665C15.8315 40.8403 16.6556 37.6705 17.9737 33.9534L18.2198 33.2456L17.6419 33.5344C16.3666 34.1673 15.3821 34.6059 14.4385 35.0337C13.4647 35.4723 12.5425 35.8913 11.4706 36.4368L11.3635 36.4903L11.3314 36.6079C11.2244 37.0251 11.1067 37.4423 11.0086 37.8505C10.313 40.5925 9.85102 43.0117 9.68157 44.8658C9.54245 46.3652 9.51034 47.8645 9.59596 49.289C9.59596 49.3104 9.71368 51.8152 10.3344 53.6461C10.8267 55.2524 11.5562 56.5806 12.4872 57.5772C13.8588 59.0551 16.3541 59.9661 19.0118 59.9661C19.4612 59.9661 19.9232 59.9447 20.4262 59.8788C24.4447 59.3867 28.0334 57.6842 31.0745 54.8032C32.3926 56.9978 34.986 58.1334 37.9522 57.7804C41.589 57.3294 45.4256 55.2702 48.6112 52.104C50.1398 54.0918 53.1541 55.9317 59.1007 55.1989C62.3309 54.8032 65.413 53.7584 68.1277 52.2199C62.1918 63.9542 50.0274 72.0036 35.9741 72.0036C17.9237 72.0036 2.9751 58.7307 0.362078 41.4179L5.06196 39.1538C6.20883 38.6011 7.33252 38.0056 8.43303 37.3656C8.44194 37.3603 8.45265 37.3531 8.46335 37.346C8.46335 37.346 18.218 31.4325 20.2781 29.721" fill="#034641"/>
<path d="M28.9611 14.5685C29.0003 14.3047 29.0075 13.9534 28.8238 13.7894C28.6383 13.6236 28.3065 13.6985 28.3047 13.6985C27.7054 13.7752 24.8213 15.779 22.5329 20.9955C22.408 21.2807 22.2707 21.5606 22.1351 21.8388C22.1084 21.8922 22.0816 21.9457 22.0566 21.9992C25.5133 19.1146 28.8327 15.451 28.9611 14.5667" fill="#034641"/>
</g>
<defs>
<clipPath id="clip0_1304_416">
<rect width="72" height="72" fill="white"/>
</clipPath>
</defs>
</svg>
