<svg width="142" height="143" viewBox="0 0 142 143" fill="none" xmlns="http://www.w3.org/2000/svg">
<g clip-path="url(#clip0_61_2374)">
<path d="M138.141 71.5223H49.2527V64.2246H120.221C121.293 64.2246 122.159 63.357 122.159 62.2753C122.159 59.9117 124.069 57.9909 126.419 57.9909C127.491 57.9909 128.357 57.1198 128.357 56.0416V26.7939C128.357 25.7157 127.491 24.8445 126.419 24.8445C124.069 24.8445 122.159 22.9237 122.159 20.5602C122.159 19.482 121.293 18.6109 120.221 18.6109H109.028V11.3168H138.141V71.5223ZM77.2054 43.0494C76.5593 45.8949 74.0282 48.0227 71.0071 48.0227C65.1709 48.0227 62.4232 40.7537 66.8003 36.8192C67.9505 41.7141 72.8673 44.2597 77.2054 43.0494ZM93.2017 36.2337C95.7045 34.1058 96.1695 31.6638 96.1695 28.7433C101.423 32.1065 108.371 28.6647 108.978 22.5096H118.517C119.241 25.4586 121.548 27.7829 124.481 28.5076V54.3314C121.548 55.0597 119.241 57.3804 118.517 60.3295H49.2385V41.4249C49.2385 32.6634 38.6524 28.1828 32.4541 34.4129C30.672 36.2051 29.5608 38.6829 29.5608 41.4249V60.3295H23.4939C22.7697 57.3804 20.4587 55.0597 17.5299 54.3314V28.5076C20.4622 27.7793 22.7732 25.4551 23.4939 22.5096H53.7293V29.8072C53.7293 34.1951 57.0982 37.8046 61.3724 38.1831C59.0081 44.9345 64.0065 51.9072 71.0142 51.9072C76.6551 51.9072 81.2524 47.2837 81.2524 41.6105C81.2524 40.0146 80.9187 41.0536 81.9127 39.6505C83.1765 37.7546 83.0238 36.6764 83.1516 36.7692C86.8436 39.0685 90.6137 38.4544 93.223 36.223L93.1981 36.2373L93.2017 36.2337ZM104.395 5.88999C105.375 7.35737 105.158 7.0182 105.158 21.3814C105.158 25.5479 100.408 27.7829 97.4901 24.8338C95.7719 23.1201 96.173 22.6667 96.173 8.42131C96.173 4.00846 101.906 2.19119 104.398 5.88999H104.395ZM91.5474 5.90427C92.5556 7.41093 92.2964 7.20385 92.2964 21.667V29.9001C92.1935 31.1175 91.6255 32.3385 90.7344 33.1704C88.9417 34.8342 86.4993 34.2593 86.4993 34.1201C86.9537 34.2486 86.1372 35.4197 86.3679 34.0808C84.8059 33.5489 83.6699 32.3278 83.3363 30.3392C83.283 29.9108 83.3114 30.3142 83.3114 8.4106C83.3114 3.95848 89.1724 2.18048 91.5474 5.89356V5.90784V5.90427ZM78.6786 5.88999C79.7224 7.46091 79.4419 6.57905 79.4419 29.8179C79.4419 34.2986 79.8785 36.3372 78.1888 38.0903C75.6079 40.9072 70.4568 39.1685 70.4568 34.9484V8.42131C70.4568 3.90492 76.3037 2.26617 78.6822 5.88999H78.6786ZM57.6094 8.42131C57.6094 3.96919 63.3568 2.21619 65.8454 5.90427C66.8891 7.47519 66.5944 6.98249 66.5944 29.8215C66.5944 31.0675 66.0655 32.2636 65.1602 33.1347C62.5652 35.716 57.6094 33.938 57.6094 29.8215V8.42131ZM29.5786 71.5223H3.87305V11.3168H53.7328V18.6144H21.7934C20.7213 18.6144 19.8552 19.482 19.8552 20.5638C19.8552 22.9273 17.9452 24.8481 15.5951 24.8481C14.523 24.8481 13.6568 25.7157 13.6568 26.7975V56.0487C13.6568 57.1269 14.523 57.9981 15.5951 57.9981C17.9452 57.9981 19.8552 59.9189 19.8552 62.2824C19.8552 63.3606 20.7178 64.2318 21.7934 64.2318H29.5644V71.5294H29.5786V71.5223ZM110.231 75.4174V87.4421C110.231 92.7404 105.943 97.0497 100.692 97.0497C99.6201 97.0497 98.7539 97.9208 98.7539 98.9991V139.093H49.2527V98.9991C49.2527 97.9208 48.39 97.0497 47.3144 97.0497C39.6606 97.0497 33.4481 90.791 33.4481 83.0935V41.4142C33.4481 38.1045 36.107 35.4018 39.4014 35.4018C42.6958 35.4018 45.3654 38.0367 45.3654 41.4142V72.6433C44.5383 74.4356 46.3204 77.7845 49.4834 77.7845C59.8636 77.7845 68.3197 86.3139 68.3197 96.7569C68.3197 99.3275 72.1928 99.3275 72.1928 96.7569C72.1928 87.0065 66.0974 78.6949 57.5526 75.4103C57.4248 75.3603 110.227 75.2782 110.227 75.4103V75.4246L110.231 75.4174ZM140.076 7.42164H108.949C108.097 0.109727 98.9172 -2.63938 94.2454 3.03378C90.8623 -1.04347 84.6781 -0.950644 81.3873 3.03378C78.0574 -1.0042 71.8343 -0.989917 68.515 3.05877C63.7118 -2.71793 54.6381 0.256108 53.8109 7.42164H1.9383C0.8662 7.42164 0 8.29278 0 9.37101V73.4716C0 74.5498 0.8662 75.421 1.9383 75.421H29.5786C29.5786 83.5505 28.7408 89.6521 34.7687 95.7287C37.6619 98.6349 41.3646 100.416 45.369 100.856V141.053C45.369 142.131 46.2352 143.003 47.3073 143.003H100.678C101.75 143.003 102.616 142.135 102.616 141.053V100.816C109.095 99.8666 114.093 94.2363 114.093 87.4421V75.4174H140.069C141.141 75.4174 142.007 74.5463 142.007 73.468V9.36743C142.007 8.28921 141.141 7.41807 140.069 7.41807H140.083L140.076 7.42164Z" fill="white"/>
</g>
<defs>
<clipPath id="clip0_61_2374">
<rect width="142" height="143" fill="white"/>
</clipPath>
</defs>
</svg>
