<svg width="34" height="34" viewBox="0 0 34 34" fill="none" xmlns="http://www.w3.org/2000/svg">
<path d="M13.9377 5.84277H15.8127V7.71777H13.9377V5.84277Z" fill="#2A3646"/>
<path d="M16.0625 15.0713H17.9375V16.9463H16.0625V15.0713Z" fill="#2A3646"/>
<path d="M6.25 19.2588H8.125V21.1338H6.25V19.2588Z" fill="#2A3646"/>
<path d="M20.3125 25.6396H22.1875V27.5146H20.3125V25.6396Z" fill="#2A3646"/>
<path d="M24.1248 13.1963H25.9998V15.0713H24.1248V13.1963Z" fill="#2A3646"/>
<path d="M13.1428 13.366C13.1428 11.6479 11.7451 10.25 10.0269 10.25C8.30859 10.25 6.91064 11.6479 6.91064 13.366C6.91064 15.0842 8.30859 16.4822 10.0269 16.4822C11.7451 16.4822 13.1428 15.0842 13.1428 13.366ZM10.0269 14.6072C9.34253 14.6072 8.78564 14.0505 8.78564 13.3662C8.78564 12.6819 9.34253 12.125 10.0269 12.125C10.7112 12.125 11.2678 12.6816 11.2678 13.366C11.2678 14.0503 10.7112 14.6072 10.0269 14.6072Z" fill="#2A3646"/>
<path d="M25.0623 17.0801C23.3442 17.0801 21.9463 18.4778 21.9463 20.196C21.9463 21.9143 23.3442 23.312 25.0623 23.312C26.7805 23.312 28.1785 21.9143 28.1785 20.196C28.1785 18.4778 26.7805 17.0801 25.0623 17.0801ZM25.0623 21.4373C24.3779 21.4373 23.8213 20.8804 23.8213 20.196C23.8213 19.5117 24.3779 18.9551 25.0623 18.9551C25.7466 18.9551 26.3035 19.5117 26.3035 20.196C26.3035 20.8804 25.7466 21.4373 25.0623 21.4373Z" fill="#2A3646"/>
<path d="M13.9377 20.5078C12.2197 20.5078 10.8218 21.9058 10.8218 23.624C10.8218 25.342 12.2197 26.74 13.9377 26.74C15.656 26.74 17.054 25.342 17.054 23.624C17.054 21.9058 15.656 20.5078 13.9377 20.5078ZM13.9377 24.865C13.2534 24.865 12.6968 24.3083 12.6968 23.624C12.6968 22.9397 13.2534 22.3831 13.9377 22.3831C14.6221 22.3831 15.179 22.9397 15.179 23.624C15.179 24.3083 14.6221 24.865 13.9377 24.865Z" fill="#2A3646"/>
<path d="M32.9784 15.3563L32.9763 15.3222L32.9437 15.3118L32.3334 15.1164C30.7378 14.6058 29.7505 12.9735 30.0368 11.3203L30.2514 10.081L30.2629 10.015L30.1963 10.0229L28.9477 10.1711C28.5622 10.2168 28.1707 10.2036 27.785 10.1318C25.7626 9.75479 24.3939 7.86452 24.6687 5.82797L24.8623 4.39439L24.8726 4.31792L24.7986 4.33973L23.4109 4.74866C23.4109 4.74867 23.4109 4.74867 23.4109 4.74867C23.0737 4.84792 22.7252 4.89849 22.375 4.89849C20.5881 4.89849 19.0339 3.56874 18.7606 1.8063L18.6439 1.05289L18.6377 1.0127L18.597 1.01061L17.8356 0.971552C17.8356 0.971551 17.8356 0.971551 17.8356 0.971551C17.8356 0.97155 17.8356 0.97155 17.8356 0.97155C17.5578 0.957101 17.2767 0.95 17 0.95C12.7131 0.95 8.68227 2.61957 5.65092 5.65092C2.61957 8.68227 0.95 12.7131 0.95 17C0.95 21.2869 2.61957 25.3177 5.65092 28.3491C8.68227 31.3804 12.7131 33.05 17 33.05C21.2869 33.05 25.3177 31.3804 28.3491 28.3491C31.3804 25.3177 33.05 21.2869 33.05 17C33.05 16.6744 33.0395 16.3458 33.0179 15.9959L32.9784 15.3563ZM17 31.075C9.23904 31.075 2.925 24.761 2.925 17C2.925 9.23936 9.23852 2.92552 16.999 2.925C17.3106 3.91792 17.8951 4.81375 18.6926 5.50316C19.7149 6.387 21.0224 6.87349 22.375 6.87349C22.4771 6.87349 22.5793 6.87074 22.6813 6.86509C22.9077 9.4147 24.8026 11.5849 27.4232 12.0733C27.6211 12.1102 27.8201 12.1367 28.0194 12.1531C28.1165 14.1063 29.2884 15.8892 31.0722 16.7368C31.074 16.8252 31.075 16.9129 31.075 17C31.075 24.761 24.761 31.075 17 31.075Z" fill="#2A3646" stroke="#2A3646" stroke-width="0.1"/>
</svg>