<svg width="149" height="139" viewBox="0 0 149 139" fill="none" xmlns="http://www.w3.org/2000/svg">
<g clip-path="url(#clip0_61_2369)">
<path d="M89.5839 42.542C89.5839 46.92 85.334 51.841 81.7689 55.1992C78.9095 57.8906 76.008 60.0328 74.5481 61.0586C73.0853 60.0388 70.1837 57.9117 67.3002 55.2173C63.7049 51.8531 59.4189 46.926 59.4189 42.545C59.4189 40.1433 60.0191 38.158 61.1592 36.8002C62.1124 35.6597 63.4304 34.9628 64.9687 34.7817C65.2251 34.7516 65.4845 34.7365 65.7499 34.7365C68.6243 34.7365 71.8456 36.5347 72.7263 40.1976C72.9194 41.0093 73.6372 41.5795 74.4275 41.5825H74.533C75.3655 41.5765 76.0804 41.0093 76.2764 40.1976C77.2356 36.1968 80.9847 34.4227 84.0341 34.7787C85.5723 34.9597 86.8904 35.6597 87.8465 36.7972C88.9836 38.155 89.5869 40.1433 89.5869 42.542M90.6184 34.471C89.0832 32.6395 86.8964 31.4749 84.4624 31.1852C81.98 30.8925 79.4374 31.499 77.2989 32.896C76.2161 33.605 75.266 34.5132 74.5059 35.5602C73.7458 34.5132 72.7957 33.605 71.7129 32.896C69.5744 31.499 67.0318 30.8956 64.5525 31.1852C62.1184 31.4749 59.9316 32.6395 58.3964 34.471C56.7043 36.4895 55.8115 39.2804 55.8115 42.542C55.8115 53.1535 72.8198 64.275 73.5437 64.7427C73.8393 64.9327 74.1771 65.0323 74.5934 65.0323C74.9432 65.0323 75.2841 64.9297 75.5797 64.7396C76.3005 64.272 93.2093 53.1415 93.2093 42.542C93.2093 39.2804 92.3135 36.4895 90.6244 34.471" fill="white"/>
<path d="M139.044 94.9427V77.7325C142.271 79.2894 144.485 82.6113 144.485 86.3376C144.485 90.0638 142.271 93.4069 139.044 94.9427ZM134.528 98.8258C134.528 102.078 131.865 104.743 128.614 104.743H118.431V67.9537H128.614C131.865 67.9537 134.528 70.5968 134.528 73.8704C134.522 78.9786 134.519 100.181 134.528 98.8228M113.916 107.337C113.916 109.121 112.471 110.566 110.688 110.566C108.906 110.566 107.482 109.121 107.482 107.337V65.3347C107.482 63.5516 108.927 62.1063 110.688 62.1063C112.45 62.1063 113.916 63.5516 113.916 65.3347V107.34V107.337ZM79.0364 134.483H69.3302C67.3667 134.483 65.7621 132.881 65.7621 130.914C65.7621 128.947 67.3637 127.345 69.3302 127.345H79.0364C80.9999 127.345 82.6045 128.947 82.6045 130.914C82.6045 132.881 81.0029 134.483 79.0364 134.483ZM112.878 26.0386C110.981 28.2743 107.346 28.5911 105.111 26.6933C96.5544 19.5123 85.675 15.5386 74.5 15.5386C63.325 15.5386 52.4426 19.5123 43.8856 26.6933C41.5601 28.6575 38.0825 28.3648 36.1189 26.0386C34.1765 23.7123 34.4721 20.2123 36.7976 18.2692C47.3422 9.3956 60.7281 4.51677 74.5 4.51677C88.2719 4.51677 101.658 9.3956 112.202 18.2692C114.528 20.2123 114.82 23.7123 112.881 26.0386M30.5691 67.9537V104.743H20.3865C17.135 104.743 14.4717 102.078 14.4717 98.8258C14.4898 94.4207 14.4747 78.2333 14.4717 73.8735C14.4717 70.5968 17.135 67.9567 20.3865 67.9567H30.5691V67.9537ZM35.0844 65.3347C35.0844 63.5516 36.5291 62.1063 38.3117 62.1063C40.0943 62.1063 41.5179 63.5516 41.5179 65.3347V107.34C41.5179 109.124 40.0732 110.569 38.3117 110.569C36.5502 110.569 35.0844 109.124 35.0844 107.34V65.3347ZM9.95646 94.9427C6.72913 93.4069 4.51524 90.0638 4.51524 86.3376C4.51524 82.6113 6.72611 79.2924 9.95646 77.7325V94.9427ZM138.932 72.923C138.504 68.0442 134.709 64.161 129.877 63.5516V60.9537C129.877 47.9918 125.226 36.3152 117.484 27.2153C119.674 23.1269 118.793 17.9102 115.113 14.8175C103.757 5.26202 89.3336 0 74.5 0C59.6664 0 45.2429 5.26202 33.8869 14.8145C30.2283 17.886 29.3265 23.0817 31.4951 27.1459C23.7495 36.291 19.1227 47.9918 19.1227 60.9537V63.5516C14.2907 64.161 10.4994 68.0472 10.0711 72.923C4.22267 74.6609 0 80.104 0 86.3376C0 92.5711 4.22267 98.0142 10.0681 99.7732C10.5416 105.08 14.9664 109.259 20.3865 109.259H30.8376C31.6972 112.602 34.6983 115.086 38.3117 115.086C42.5555 115.086 46.0332 111.61 46.0332 107.34V65.3347C46.0332 61.0684 42.5555 57.5896 38.3117 57.5896C34.7013 57.5896 31.6972 60.0969 30.8376 63.4399H23.6349V60.9568C23.6349 49.3707 27.6977 38.8708 34.5173 30.6036C38.1518 33.2225 43.2311 33.1773 46.7993 30.151C54.5418 23.6459 64.3867 20.0554 74.5 20.0554C84.6133 20.0554 94.4551 23.6459 102.201 30.151C105.591 33.0325 110.586 33.3915 114.413 30.6489C121.254 38.913 125.362 49.3465 125.362 60.9568V63.4399H118.159C117.3 60.0969 114.299 57.5896 110.685 57.5896C106.417 57.5896 102.964 61.0684 102.964 65.3347V107.34C102.964 110.819 105.265 113.731 108.426 114.702V116.012C108.426 122.967 102.759 128.636 95.8064 128.636H86.7548C85.7625 125.293 82.692 122.831 79.0333 122.831H69.3272C64.8814 122.831 61.2438 126.466 61.2438 130.914C61.2438 135.361 64.8783 138.997 69.3272 138.997H79.0333C82.7131 138.997 85.7836 136.514 86.7548 133.147H95.8064C105.265 133.147 112.941 125.447 112.941 116.006V114.696C115.514 113.927 117.502 111.872 118.156 109.253H128.608C134.028 109.253 138.449 105.074 138.926 99.7672C144.774 98.0051 148.994 92.5621 148.994 86.3315C148.994 80.101 144.771 74.6549 138.926 72.917" fill="white"/>
</g>
<defs>
<clipPath id="clip0_61_2369">
<rect width="149" height="139" fill="white"/>
</clipPath>
</defs>
</svg>
