<svg width="178" height="194" viewBox="0 0 178 194" fill="none" xmlns="http://www.w3.org/2000/svg">
<g clip-path="url(#clip0_1206_11608)">
<path d="M152.405 159.836C151.497 159.947 150.839 161.071 150.839 162.7C150.839 164.584 151.446 165.412 152.465 165.287C153.368 165.176 154.23 164.117 154.23 162.673C154.23 160.664 153.447 159.706 152.405 159.831V159.836Z" fill="#FAFAF2"/>
<path d="M134.178 165.888C134.178 165.213 133.789 164.782 133.159 164.861C132.367 164.958 131.696 165.643 131.622 167.249L132.956 167.087C133.775 166.985 134.178 166.536 134.178 165.893V165.888Z" fill="#FAFAF2"/>
<path d="M176.337 151L132.488 156.132L130.399 156.387L98.9583 160.251C97.7772 161.838 96.0727 163.065 93.9699 163.828L97.8652 170.789L92.4182 181.863L130.399 177.198L132.488 176.944L176.337 171.811L170.89 162.074L176.337 151.005V151ZM114.595 163.467C115.202 163.393 115.693 163.824 115.693 164.388C115.693 164.953 115.202 165.49 114.595 165.564C113.965 165.643 113.488 165.221 113.488 164.657C113.488 164.092 113.965 163.546 114.595 163.467ZM109.352 173.69C107.411 173.926 106.114 173.51 106.054 173.08C105.818 171.589 105.79 171.353 105.79 171.214C105.79 171.113 105.841 171.057 105.925 171.048C106.253 171.006 107.365 173.255 109.505 172.992C110.561 172.862 111.066 172.297 111.066 171.696C111.066 169.71 105.952 169.609 105.952 167.123C105.952 165.892 107.152 164.768 109.616 164.467C111.154 164.277 112.122 164.486 112.201 164.842C112.428 166.045 112.488 166.36 112.488 166.499C112.488 166.601 112.428 166.656 112.335 166.67C111.932 166.721 111.103 164.925 109.375 165.138C108.291 165.272 107.787 165.735 107.787 166.314C107.787 168.007 112.891 168.1 112.891 170.812C112.891 172.408 111.469 173.436 109.352 173.695V173.69ZM115.855 172.756C115.526 172.797 115.239 172.769 114.72 172.83L114.507 172.857C113.988 172.922 113.687 173.019 113.359 173.061C113.183 173.084 113.095 173.005 113.095 172.853C113.095 172.478 113.711 172.376 113.711 171.673V168.382C113.711 167.517 113.229 167.549 113.229 167.262C113.229 167.11 113.382 166.966 113.72 166.901C114.489 166.758 114.892 166.332 115.272 166.286C115.434 166.267 115.498 166.346 115.498 166.587V171.455C115.498 172.159 116.114 172.108 116.114 172.483C116.114 172.631 116.036 172.732 115.85 172.756H115.855ZM122.641 171.923C122.312 171.96 122.011 171.936 121.506 171.997L121.279 172.024C120.774 172.085 120.473 172.186 120.144 172.228C119.954 172.251 119.88 172.172 119.88 172.02C119.88 171.645 120.496 171.543 120.496 170.84V167.373C120.496 166.735 120.246 166.564 119.894 166.605C119.431 166.661 119.028 167.216 118.838 168.091V171.043C118.838 171.747 119.454 171.696 119.454 172.071C119.454 172.223 119.375 172.321 119.19 172.344C118.861 172.381 118.56 172.358 118.055 172.418L117.828 172.446C117.323 172.506 117.022 172.607 116.693 172.649C116.504 172.672 116.429 172.594 116.429 172.446C116.429 172.071 117.05 171.969 117.05 171.265V167.975C117.05 167.11 116.559 167.142 116.559 166.855C116.559 166.702 116.721 166.559 117.064 166.489C117.833 166.346 118.236 165.92 118.616 165.874C118.778 165.855 118.843 165.934 118.843 166.175V167.105H118.88C119.107 166.508 119.699 165.744 120.654 165.629C121.663 165.504 122.293 165.892 122.293 167.059V170.627C122.293 171.33 122.909 171.279 122.909 171.654C122.909 171.807 122.831 171.899 122.645 171.927L122.641 171.923ZM127.356 170.678C128.023 170.594 128.588 170.187 128.889 169.822C129.056 169.687 129.139 169.627 129.218 169.669C129.292 169.71 129.269 169.803 129.167 169.951C128.662 170.816 127.884 171.418 126.633 171.566C124.947 171.774 123.308 170.904 123.308 168.683C123.308 166.462 125.021 165.083 126.758 164.87C128.398 164.671 129.329 165.332 129.329 166.175C129.329 166.563 129.065 166.874 128.704 166.915C127.699 167.04 127.847 165.49 126.74 165.624C125.86 165.73 125.174 166.582 125.174 168.179C125.174 170.113 126.17 170.816 127.356 170.673V170.678ZM133.683 169.872C134.461 169.78 134.966 169.428 135.309 169.035C135.462 168.914 135.587 168.85 135.651 168.896C135.726 168.924 135.702 169.039 135.614 169.174C135.072 170.081 134.229 170.636 133.081 170.779C131.367 170.988 129.732 170.122 129.732 167.901C129.732 165.518 131.409 164.305 133.169 164.088C134.619 163.912 135.79 164.546 135.79 165.74C135.79 166.707 135.123 167.304 133.697 167.48L131.617 167.734C131.705 169.391 132.627 170.007 133.683 169.877V169.872ZM141.645 169.59C141.316 169.632 141.029 169.604 140.51 169.664L140.167 169.706C139.649 169.771 139.348 169.868 139.023 169.909C138.843 169.933 138.759 169.854 138.759 169.706C138.759 169.331 139.375 169.229 139.375 168.526V162.722C139.375 161.857 138.847 161.899 138.847 161.607C138.847 161.454 139.028 161.306 139.389 161.241C140.209 161.089 140.649 160.658 141.043 160.612C141.219 160.594 141.293 160.668 141.293 160.908V168.29C141.293 168.993 141.909 168.942 141.909 169.317C141.909 169.465 141.83 169.562 141.645 169.59ZM148.305 160.663L145.675 167.804C145.42 168.489 146.041 168.438 146.041 168.813C146.041 168.965 145.953 169.063 145.777 169.086C145.438 169.127 145.151 169.1 144.632 169.164L144.091 169.234C143.572 169.299 143.285 169.396 142.942 169.437C142.766 169.461 142.678 169.382 142.678 169.229C142.678 168.854 143.308 168.752 143.609 168.072L146.796 160.978L144.767 161.228C143.595 161.371 143.368 162.806 142.812 162.875C142.715 162.889 142.65 162.833 142.65 162.695C142.636 162.357 142.937 161.565 142.937 160.987C142.937 160.686 143.048 160.57 143.275 160.543L148.491 159.904C148.63 159.885 148.704 159.941 148.704 160.043C148.704 160.145 148.426 160.316 148.301 160.672L148.305 160.663ZM151.117 168.567C150.89 168.595 150.802 168.553 150.802 168.415C150.802 168.262 150.904 168.216 151.052 168.197C152.187 168.058 153.711 166.855 154.091 164.851L154.026 164.86C153.521 165.559 152.757 166.017 151.895 166.124C150.269 166.323 149.037 165.221 149.037 163.259C149.037 161.061 150.445 159.418 152.576 159.159C154.795 158.886 156.18 160.515 156.18 163.06C156.18 165.823 153.85 168.23 151.117 168.567ZM159.649 167.521C158.111 167.711 156.772 167.096 156.772 166.078C156.772 165.615 157.05 165.277 157.49 165.226C158.509 165.101 158.685 166.8 159.783 166.661C160.561 166.563 161.131 165.795 161.131 164.624C161.131 163.069 160.084 162.759 158.838 162.912C158.472 162.958 158.343 162.833 158.343 162.593C158.343 162.352 158.505 162.209 158.857 162.167C159.69 162.065 160.95 161.496 160.95 160.075C160.95 159.487 160.621 159.039 159.802 159.136C158.264 159.326 157.407 161.084 157.143 161.116C157.041 161.13 156.99 161.01 157.041 160.654L157.203 159.339C157.254 158.918 158.551 158.46 159.681 158.321C161.307 158.122 162.683 158.645 162.683 159.936C162.683 161.228 161.548 161.973 160.418 162.287V162.324C161.576 162.232 162.947 162.792 162.947 164.449C162.947 166.105 161.562 167.281 159.635 167.517L159.649 167.521Z" fill="#FAFAF2"/>
<path d="M7.8509 156.328L12.2696 155.787C12.2696 158.934 12.844 159.757 14.6319 159.54C16.0816 159.364 16.693 158.462 16.693 157.069C16.693 155.912 16.3873 155.449 15.85 155.116C15.4146 154.838 14.567 154.579 12.9505 154.181C11.4637 153.834 10.2502 153.352 9.54151 152.779C8.52715 152.075 7.81848 150.571 7.81848 148.387C7.81848 144.444 10.3521 141.584 14.6365 141.056C19.6296 140.445 21.2136 142.634 21.2136 148.299L16.8644 148.831C16.8644 145.388 16.29 144.694 14.7384 144.883C13.5573 145.027 12.8162 145.948 12.8162 147.304C12.8162 148.66 13.1173 149.123 13.5897 149.465C14.0621 149.803 15.1784 150.131 16.5587 150.492C18.1474 150.895 19.0552 151.214 19.9306 151.834C21.0423 152.626 21.6861 154.102 21.6861 156.092C21.6861 159.97 19.2544 162.816 14.6365 163.386C9.17097 164.057 7.85554 161.136 7.85554 156.333" fill="#FAFAF2"/>
<path d="M30.7552 150.834C30.7552 148.914 30.2503 148.146 29.1016 148.289C27.99 148.428 27.3786 149.228 27.2119 151.667L30.7552 151.232V150.834ZM34.8358 153.283L27.1424 154.227C27.2443 157.262 27.8835 158.174 29.1016 158.026C30.1808 157.892 30.7181 157.267 30.7552 155.138L34.8358 154.638C34.8034 158.817 32.8117 161.08 28.8978 161.562C24.3077 162.126 22.4874 159.234 22.4874 154.097C22.4874 147.933 24.9191 145.286 29.0322 144.781C32.7422 144.328 34.8358 146.156 34.8358 151.691V153.283Z" fill="#FAFAF2"/>
<path d="M35.9196 144.137L40.5745 143.567L40.3707 147.834L40.4402 147.825C40.9126 145.215 41.8575 143.211 44.2892 142.915C46.8182 142.605 47.8325 144.567 47.8325 148.047C47.8325 149.639 47.7306 151.24 47.6612 151.976L43.5111 152.485C43.5805 151.749 43.6454 150.449 43.6454 149.584C43.6454 147.793 43.2748 147.177 42.4643 147.274C41.2508 147.422 40.5745 149.162 40.5745 152.508V159.931L35.9196 160.501V144.132V144.137Z" fill="#FAFAF2"/>
<path d="M47.9993 142.657L53.3629 142L55.424 153.574L55.5213 153.565L57.7816 141.458L62.5061 140.875L58.1198 157.785L52.418 158.484L47.9993 142.657Z" fill="#FAFAF2"/>
<path d="M63.3862 140.772L68.0411 140.198V156.567L63.3862 157.141V140.772ZM63.3538 135.543L68.0411 134.969V138.912L63.3538 139.486V135.543Z" fill="#FAFAF2"/>
<path d="M69.4539 140.026L74.1088 139.452L73.905 143.385L73.9745 143.376C74.5164 140.761 75.6605 139.063 78.4951 138.711C81.4317 138.35 82.849 140.266 82.849 143.742V154.742L78.1941 155.316V145.176C78.1941 143.617 77.6197 142.96 76.4386 143.108C74.9518 143.288 74.1088 144.718 74.1088 147.069V155.816L69.4539 156.39V140.021V140.026Z" fill="#FAFAF2"/>
<path d="M88.4165 143.468C88.4165 145.491 88.9538 146.282 90.0052 146.157C91.052 146.027 91.5893 145.102 91.5893 143.08C91.5893 141.057 91.052 140.266 90.0052 140.391C88.9584 140.52 88.4165 141.446 88.4165 143.468ZM92.5666 155.783C92.5666 154.89 92.2609 154.362 91.0798 154.506L89.5281 154.695C88.6481 154.802 88.2127 155.422 88.2127 156.38C88.2127 157.273 88.9538 157.879 90.4082 157.704C91.7884 157.532 92.5666 156.778 92.5666 155.783ZM97.2215 154.385C97.2215 157.699 94.9612 160.258 90.5101 160.809C85.9199 161.373 83.6272 159.698 83.6272 157.514C83.6272 156.024 84.4702 154.857 85.8551 154.427V154.362C84.8407 153.858 84.5072 152.969 84.5072 151.979C84.5072 150.554 85.114 149.42 86.2256 148.85V148.753C84.7759 147.971 84.0302 146.375 84.0302 144.019C84.0302 140.108 86.0913 137.804 90.0005 137.322C91.3484 137.156 92.4971 137.248 93.3725 137.637L93.4049 137.6C92.9001 137.133 92.5249 136.545 92.5249 135.851C92.5249 134.624 93.5022 133.708 95.5309 133.463C96.1377 133.389 96.6101 133.398 96.8834 133.43V136.776C96.7491 136.758 96.5129 136.753 96.1747 136.795C95.3966 136.892 95.0585 137.295 95.0585 137.994C95.0585 138.392 95.1604 138.84 95.2947 139.354C95.7347 140.196 95.9709 141.261 95.9709 142.552C95.9709 146.463 93.9144 148.767 90.0005 149.248C89.3938 149.323 88.8194 149.327 88.2775 149.295C88.208 149.434 88.1061 149.711 88.1061 150.142C88.1061 150.803 88.4767 151.123 89.4586 151.002L92.2238 150.665C95.5958 150.253 97.2169 151.673 97.2169 154.395" fill="#FAFAF2"/>
<path d="M109.607 147.225C111.497 146.994 112.205 144.985 112.205 140.182C112.205 135.378 111.464 133.679 109.44 133.929L108.125 134.091V147.41L109.612 147.23L109.607 147.225ZM103.127 130.463L109.269 129.709C114.975 129.01 117.231 131.81 117.231 139.566C117.231 147.322 115.068 150.798 109.704 151.455L103.127 152.26V130.458V130.463Z" fill="#FAFAF2"/>
<path d="M118.347 134.027L123.002 133.458L122.798 137.725L122.868 137.716C123.34 135.105 124.285 133.102 126.712 132.805C129.241 132.495 130.256 134.458 130.256 137.938C130.256 139.53 130.154 141.131 130.084 141.867L125.934 142.376C126.004 141.635 126.068 140.34 126.068 139.474C126.068 137.683 125.698 137.068 124.887 137.165C123.674 137.313 122.997 139.053 122.997 142.399V149.822L118.343 150.396V134.027H118.347Z" fill="#FAFAF2"/>
<path d="M131.265 132.444L135.92 131.875V148.243L131.265 148.813V132.444ZM131.233 127.214L135.92 126.641V130.584L131.233 131.157V127.214Z" fill="#FAFAF2"/>
<path d="M137.342 131.701L141.997 131.131L141.793 135.065L141.858 135.056C142.4 132.436 143.544 130.738 146.379 130.391C149.315 130.03 150.733 131.946 150.733 135.426V146.426L146.078 146.996V136.856C146.078 135.301 145.503 134.639 144.322 134.787C142.835 134.968 141.992 136.398 141.992 138.753V147.5L137.337 148.069V131.701H137.342Z" fill="#FAFAF2"/>
<path d="M151.951 123.546L156.606 122.977V136.856H156.638L160.385 128.872L165.615 128.229L161.566 135.587L165.883 144.566L160.283 145.25L158.157 139.683L156.606 142.39V145.704L151.951 146.273V123.546Z" fill="#FAFAF2"/>
<path d="M165.55 139.039L169.529 138.548C169.529 140.172 170.103 140.996 171.52 140.825C172.701 140.682 173.34 139.969 173.34 138.978C173.34 138.247 173.039 137.854 172.498 137.655C171.96 137.456 171.15 137.322 170.033 137.16C168.718 136.956 167.541 136.669 166.796 136.132C166.087 135.623 165.55 134.596 165.55 133.24C165.55 130.223 167.778 127.765 171.692 127.284C175.707 126.789 177.565 128.251 177.565 132.425L173.618 132.911C173.618 131.088 173.146 130.352 171.798 130.519C170.751 130.648 170.145 131.417 170.145 132.31C170.145 133.203 170.45 133.499 170.955 133.703C171.492 133.934 172.507 134.073 173.618 134.24C174.869 134.415 175.944 134.614 176.754 135.179C177.565 135.744 178.005 136.78 178.005 138.076C178.005 141.024 176.147 143.505 171.664 144.055C167.143 144.611 165.559 142.385 165.559 139.039" fill="#FAFAF2"/>
<path d="M14.831 182.096C16.2484 181.92 16.8875 180.62 16.8875 177.936C16.8875 175.252 16.1789 174.011 14.6272 174.201L13.1404 174.382V182.3L14.8264 182.092L14.831 182.096ZM8.14734 170.758L14.5948 169.967C19.3517 169.383 21.5471 171.568 21.5471 176.996C21.5471 182.425 19.5555 185.026 15.1691 185.562L13.145 185.812V191.94L8.15197 192.551V170.749L8.14734 170.758Z" fill="#FAFAF2"/>
<path d="M30.5235 179.511C30.5235 177.591 30.0186 176.822 28.8699 176.966C27.7583 177.105 27.1469 177.905 26.9802 180.344L30.5235 179.909V179.511ZM34.6041 181.959L26.9107 182.903C27.0126 185.939 27.6518 186.851 28.8699 186.703C29.9492 186.569 30.4864 185.939 30.5235 183.815L34.6041 183.315C34.5717 187.494 32.58 189.757 28.6661 190.239C24.076 190.803 22.2557 187.911 22.2557 182.774C22.2557 176.61 24.6828 173.962 28.8005 173.458C32.5105 173 34.6041 174.832 34.6041 180.367V181.959Z" fill="#FAFAF2"/>
<path d="M44.0855 179.963C44.0855 176.816 43.4093 175.441 42.0938 175.603C40.7738 175.765 40.0698 177.311 40.0698 180.458C40.0698 183.605 40.7784 184.975 42.0938 184.813C43.4093 184.651 44.0855 183.109 44.0855 179.963ZM35.4148 181.027C35.4148 175.529 37.7122 172.364 42.0985 171.827C46.4477 171.29 48.7451 173.895 48.7451 179.393C48.7451 184.891 46.4477 188.057 42.0985 188.589C37.7122 189.126 35.4148 186.525 35.4148 181.027Z" fill="#FAFAF2"/>
<path d="M58.7266 178.007C58.7266 175.091 58.055 173.652 56.7396 173.809C55.2898 173.985 54.5441 175.535 54.5441 178.354V179.747C54.5441 182.065 55.3223 183.194 56.772 183.019C58.055 182.861 58.7266 181.158 58.7266 178.007ZM49.8892 171.074L54.5441 170.505L54.4422 173.531H54.4746C54.8776 171.356 56.1977 170.102 58.3237 169.843C61.6308 169.436 63.3492 171.976 63.3492 177.243C63.3492 182.977 61.5937 186.207 58.2171 186.619C56.193 186.869 54.8776 186.036 54.4052 184.203H54.3727C54.4422 185.258 54.5395 186.869 54.5395 187.466V193.431L49.8845 194V171.074H49.8892Z" fill="#FAFAF2"/>
<path d="M64.4978 162.918L69.1528 162.344V185.071L64.4978 185.645V162.918Z" fill="#FAFAF2"/>
<path d="M78.5322 173.616C78.5322 171.696 78.0273 170.928 76.8786 171.071C75.767 171.21 75.1556 172.01 74.9888 174.449L78.5322 174.014V173.616ZM82.6128 176.064L74.9194 177.009C75.0213 180.044 75.6604 180.956 76.874 180.808C77.9532 180.674 78.4951 180.044 78.5275 177.92L82.6081 177.42C82.5757 181.599 80.584 183.862 76.6702 184.344C72.0801 184.908 70.2598 182.016 70.2598 176.879C70.2598 170.715 72.6868 168.068 76.8045 167.558C80.5146 167.105 82.6081 168.933 82.6081 174.468V176.06L82.6128 176.064Z" fill="#FAFAF2"/>
<path d="M163.609 85.1285L163.248 85.7393C157.602 95.2774 146.152 102.395 134.081 103.876C126.819 104.764 121.677 103.496 119.195 100.206C116.865 97.1146 116.865 92.1906 119.199 86.6927C122.298 79.3992 128.542 73.42 133.715 72.7859C134.859 72.6425 136.425 72.735 137.319 73.966C138.532 75.6321 138.245 78.8068 136.545 82.4628L136.045 83.5457L148.667 83.7864L148.88 83.319C152.141 76.1365 152.039 68.7828 148.611 64.1226C146.499 61.2533 142.182 58.0555 133.525 59.1245C116.971 61.1469 104.933 76.1041 102.025 90.0988C101.353 93.329 100.061 96.4297 97.9671 98.9843C97.7078 99.299 97.4438 99.5998 97.1844 99.8682C91.8949 105.315 86.1792 108.569 80.5933 109.24C78.5877 109.48 76.9342 109.027 76.0263 108.013C75.0907 107 74.9054 105.264 75.4381 103.075L81.2047 79.8573L95.6976 78.0895C97.1936 72.4296 100.723 66.89 104.155 63.2896L84.7619 65.7701L89.4771 46.0508L72.6729 48.1333L67.7586 67.8619L54.5672 69.4585L49.9261 83.9345L64.4607 81.7177L62.2189 90.7421C60.4542 97.8967 56.5542 104.167 51.2647 108.388C47.2026 111.618 42.4736 113.594 36.8645 114.395C32.9645 114.955 29.838 114.099 27.5129 111.803C20.7782 105.102 23.0524 88.4189 23.0756 88.2337C23.826 81.9352 25.8825 74.0308 29.1664 64.7705L29.7824 63.0073L28.342 63.7292C25.1599 65.3027 22.7051 66.3995 20.3521 67.4685C17.9204 68.5607 15.623 69.602 12.9505 70.9672L12.6818 71.1014L12.6031 71.393C12.3345 72.4342 12.0427 73.4755 11.8018 74.489C10.0649 81.3244 8.9162 87.3545 8.49007 91.9731C8.14269 95.7077 8.06395 99.4471 8.27701 102.997C8.27701 103.052 8.57344 109.295 10.1205 113.863C11.3479 117.866 13.1682 121.175 15.4934 123.66C18.9116 127.344 25.1368 129.611 31.7649 129.611C32.8858 129.611 34.0344 129.561 35.2897 129.399C45.3082 128.172 54.2569 123.928 61.8484 116.746C65.137 122.216 71.603 125.048 78.9999 124.169C88.069 123.045 97.6337 117.912 105.582 110.022C109.394 114.978 116.911 119.56 131.738 117.736C149.774 115.529 165.999 105.274 174.081 90.9781L174.494 90.2469L163.614 85.1331L163.609 85.1285Z" fill="#FAFAF2"/>
<path d="M39.5278 34.5874C39.8705 33.8932 40.2086 33.1944 40.5236 32.4863C46.23 19.482 53.4232 14.4886 54.9146 14.2942C54.9239 14.2942 55.7483 14.1045 56.2115 14.5164C56.6654 14.9236 56.6469 15.7983 56.5543 16.4601C56.2347 18.6629 47.953 27.7983 39.3332 34.9854C39.3981 34.8512 39.4629 34.7216 39.5278 34.5874ZM34.9238 54.228C37.9159 52.2705 40.607 50.3591 43.1452 48.3877C60.1624 35.1844 68.9304 24.0683 69.213 15.3494C69.3612 10.8557 67.5687 6.61196 64.2894 3.70104C61.0656 0.87804 56.6006 -0.427017 52.0244 0.123699C41.3017 1.43338 30.0326 23.9896 24.2706 37.3178C22.9645 40.3121 21.6629 43.5099 20.2873 47.0919C15.1367 50.4286 10.0417 53.5894 5.13666 56.4864L4.92823 56.6068L0 76.3909L1.17648 75.7152C1.17648 75.7152 2.83003 74.7619 5.46552 73.23C6.78095 72.485 8.11491 71.689 9.48592 70.8559L34.9238 54.2234V54.228Z" fill="#FAFAF2"/>
</g>
<defs>
<clipPath id="clip0_1206_11608">
<rect width="178" height="194" fill="white"/>
</clipPath>
</defs>
</svg>
