<svg width="87" height="87" viewBox="0 0 87 87" fill="none" xmlns="http://www.w3.org/2000/svg">
<g clip-path="url(#clip0_1222_3690)">
<path d="M24.5135 35.9107C25.964 34.9607 27.2679 34.0344 28.4985 33.0801C36.7444 26.6799 40.9945 21.2922 41.1303 17.0657C41.2015 14.8878 40.3329 12.8305 38.7423 11.4195C37.182 10.0537 35.016 9.42037 32.8004 9.68749C27.6041 10.323 22.1449 21.2556 19.3518 27.7182C18.7203 29.1702 18.0888 30.7191 17.4228 32.4554C17.397 32.4726 17.3711 32.4877 17.3474 32.5049C13.1598 35.2171 8.78255 37.6298 4.28243 39.7861L0 41.8348C0.877177 18.5844 20.0027 0 43.4795 0C66.9564 0 87 19.4762 87 43.5C87 46.4168 86.7069 49.2647 86.1595 52.0221C83.2779 56.2228 78.0537 59.3055 72.56 59.9797C69.0405 60.4106 66.5491 59.7966 65.3464 58.2004C64.2171 56.7032 64.2193 54.3163 65.3486 51.6515C66.8508 48.1165 69.8746 45.2191 72.3833 44.911C72.9371 44.8421 73.6958 44.8852 74.1311 45.484C74.7174 46.2897 74.5794 47.83 73.7561 49.6029L73.5126 50.1285L79.627 50.2448L79.7304 50.0165C81.3102 46.5353 81.2606 42.9701 79.6011 40.7125C78.5774 39.323 76.4846 37.772 72.2906 38.289C64.2688 39.2713 58.4368 46.5181 57.0273 53.3038C56.7018 54.8699 56.0768 56.3736 55.0617 57.6101C54.9367 57.7652 54.8074 57.9095 54.6824 58.0388C52.1177 60.6799 49.3504 62.2567 46.6434 62.582C45.6735 62.6983 44.8696 62.4765 44.43 61.9875C43.9752 61.4963 43.8847 60.654 44.1455 59.5941L46.9387 48.3384L53.9604 47.4831C54.6845 44.7387 56.3958 42.0545 58.0596 40.3075L48.6607 41.5117L50.9452 31.9534L42.8028 32.9616L40.4191 42.5241L34.0289 43.2975L31.781 50.3159L38.8221 49.2431L37.7337 53.6162C36.8802 57.0845 34.9901 60.1241 32.4254 62.1706C30.4576 63.7367 28.1666 64.6931 25.4489 65.0809C23.5588 65.3545 22.0436 64.9387 20.9165 63.8272C17.6556 60.5808 18.7548 52.4917 18.7677 52.4012C19.1298 49.3487 20.1255 45.5185 21.7182 41.027L22.0156 40.1717L21.3173 40.5207C19.7764 41.2855 18.5867 41.8154 17.4466 42.3324C16.2698 42.8624 15.1555 43.3686 13.8603 44.0278L13.7309 44.0924L13.6921 44.2346C13.5628 44.7387 13.4206 45.2428 13.3021 45.7361C12.4615 49.0493 11.9033 51.9725 11.6986 54.2129C11.5305 56.0246 11.4917 57.8363 11.5951 59.5575C11.5951 59.5834 11.7374 62.61 12.4874 64.8224C13.0822 66.7633 13.9637 68.3682 15.0887 69.5724C16.7461 71.3583 19.7613 72.4591 22.9725 72.4591C23.5157 72.4591 24.0739 72.4332 24.6816 72.3535C29.5374 71.759 33.8737 69.7017 37.5483 66.2205C39.1411 68.8723 42.2748 70.2446 45.8589 69.818C50.2534 69.273 54.8893 66.7849 58.7385 62.959C60.5856 65.361 64.2279 67.5841 71.4134 66.6987C75.3165 66.2205 79.0407 64.9581 82.321 63.099C75.1484 77.2781 60.4498 87.0043 43.4688 87.0043C21.6579 87.0043 3.59492 70.9662 0.437511 50.0467L6.11653 47.3108C7.50234 46.643 8.86013 45.9235 10.1899 45.1501C10.2007 45.1437 10.2136 45.1351 10.2265 45.1264C10.2265 45.1264 22.0135 37.9809 24.5028 35.9129" fill="#FAA63B"/>
<path d="M34.9942 17.6048C35.0417 17.286 35.0503 16.8616 34.8283 16.6634C34.6042 16.4631 34.2033 16.5536 34.2011 16.5536C33.477 16.6462 29.992 19.0675 27.2268 25.3708C27.0759 25.7154 26.91 26.0537 26.7462 26.3897C26.7139 26.4543 26.6815 26.519 26.6514 26.5836C30.8282 23.0981 34.8391 18.6712 34.9942 17.6027" fill="#FAA63B"/>
</g>
<defs>
<clipPath id="clip0_1222_3690">
<rect width="87" height="87" fill="white"/>
</clipPath>
</defs>
</svg>
